<?xml version="1.0" standalone="no"?>
<!DOCTYPE svg PUBLIC "-//W3C//DTD SVG 20010904//EN"
 "http://www.w3.org/TR/2001/REC-SVG-20010904/DTD/svg10.dtd">
<svg version="1.0" xmlns="http://www.w3.org/2000/svg"
 width="500.000000pt" height="500.000000pt" viewBox="0 0 500.000000 500.000000"
 preserveAspectRatio="xMidYMid meet">

<g transform="translate(0.000000,500.000000) scale(0.100000,-0.100000)"
fill="#000000" stroke="none">
<path d="M2208 3417 l-278 -162 0 -337 c0 -186 3 -338 8 -338 4 0 21 8 37 19
23 14 91 124 275 444 135 235 247 427 250 426 4 0 248 -419 418 -720 l34 -59
-39 14 c-22 8 -64 19 -94 25 l-54 12 -130 229 c-71 126 -132 229 -135 229 -3
1 -74 -119 -157 -265 -98 -170 -146 -263 -135 -260 26 8 139 24 222 31 91 8
265 -9 378 -35 71 -17 115 -33 250 -87 9 -4 12 67 12 333 l0 339 -277 160
c-153 88 -284 161 -293 162 -8 1 -140 -71 -292 -160z m-8 -323 c-111 -192
-204 -351 -206 -353 -2 -3 -3 103 -2 234 l3 239 200 116 c110 65 201 116 203
115 2 -2 -87 -160 -198 -351z m608 234 c107 -62 196 -117 198 -123 3 -6 3
-114 2 -240 l-3 -229 -189 330 c-105 181 -196 339 -204 352 -8 12 -11 22 -7
22 5 0 96 -50 203 -112z"/>
<path d="M1570 1901 l0 -171 68 0 c87 0 102 14 102 91 0 30 -5 60 -11 66 -8 8
-8 13 0 17 16 10 14 119 -3 141 -11 15 -30 20 -85 23 l-71 4 0 -171z m110 69
c0 -36 -2 -40 -25 -40 -22 0 -25 4 -25 40 0 36 3 40 25 40 23 0 25 -4 25 -40z
m0 -140 c0 -36 -2 -40 -25 -40 -22 0 -25 4 -25 40 0 36 3 40 25 40 23 0 25 -4
25 -40z"/>
<path d="M1818 2064 c-5 -4 -8 -81 -8 -171 l0 -163 30 0 c30 0 30 1 30 55 0
42 4 55 15 55 9 0 20 -20 30 -55 14 -47 20 -55 41 -55 27 0 31 18 13 69 -9 25
-8 38 6 67 20 42 18 165 -3 186 -14 14 -143 24 -154 12z m110 -106 c-3 -49 -5
-53 -30 -56 -28 -3 -28 -2 -28 52 0 56 0 56 31 56 l30 0 -3 -52z"/>
<path d="M2060 1917 c0 -178 4 -187 81 -187 81 0 84 6 84 182 l0 153 -25 0
-25 0 -3 -137 -3 -138 -24 0 -24 0 -3 138 -3 137 -27 3 -28 3 0 -154z"/>
<path d="M2300 1900 l0 -170 25 0 c24 0 24 1 27 98 l3 97 23 -97 c19 -79 27
-98 42 -98 14 0 21 18 38 93 l20 92 1 -92 1 -93 30 0 30 0 -2 168 -3 167 -34
0 -35 0 -20 -92 c-12 -50 -24 -94 -27 -97 -3 -3 -13 31 -23 77 -25 122 -23
117 -62 117 l-34 0 0 -170z"/>
<path d="M2676 2053 c-9 -32 -66 -301 -66 -313 0 -6 12 -10 27 -8 22 2 29 9
33 33 4 26 10 30 39 33 37 4 51 -9 51 -45 0 -19 6 -23 30 -23 17 0 30 2 30 4
0 3 -16 77 -35 166 -19 89 -35 163 -35 166 0 2 -15 4 -34 4 -24 0 -36 -5 -40
-17z m64 -195 c0 -5 -12 -8 -26 -8 -25 0 -26 2 -20 38 18 101 18 102 32 37 7
-33 13 -63 14 -67z"/>
<path d="M2890 1900 l0 -171 28 3 27 3 0 165 0 165 -27 3 -28 3 0 -171z"/>
<path d="M3020 1901 l0 -171 63 0 c101 0 102 2 102 169 0 100 -4 144 -13 153
-7 7 -44 14 -82 16 l-70 4 0 -171z m110 -1 l0 -110 -25 0 -25 0 0 110 0 110
25 0 25 0 0 -110z"/>
<path d="M3260 1900 l0 -170 86 0 85 0 -3 28 c-3 26 -6 27 -60 30 l-58 3 0 39
0 40 45 0 c43 0 45 1 45 30 0 29 -2 30 -45 30 l-45 0 0 40 0 39 58 3 c53 3 57
5 57 28 0 24 -2 25 -82 28 l-83 3 0 -171z"/>
</g>
</svg>